<mxfile host="app.diagrams.net" modified="2023-10-19T10:11:40.591Z" agent="Mozilla/5.0 (Macintosh; Intel Mac OS X 10_15_7) AppleWebKit/605.1.15 (KHTML, like Gecko) Version/16.6 Safari/605.1.15" version="22.0.5" etag="Y77CImSEXFcjB_q_2yuS" type="github">
  <diagram name="Page-1" id="NVrSLnx56iMCs1TSHZi0">
    <mxGraphModel>
      <root>
        <mxCell id="0" />
        <mxCell id="1" parent="0" />
      </root>
    </mxGraphModel>
  </diagram>
</mxfile>
